<?xml version="1.0" encoding="utf-8"?>
<!-- Generator: Adobe Illustrator 26.0.3, SVG Export Plug-In . SVG Version: 6.00 Build 0)  -->
<svg version="1.0" id="katman_1" xmlns="http://www.w3.org/2000/svg" xmlns:xlink="http://www.w3.org/1999/xlink" x="0px" y="0px"
	 viewBox="0 0 600 450" style="enable-background:new 0 0 600 450;" xml:space="preserve">
<style type="text/css">
	.st0{fill:url(#SVGID_1_);}
	.st1{fill:url(#SVGID_00000099626819234851414780000003733824057061910665_);}
	.st2{fill:url(#SVGID_00000049216379763392245370000006602225747498873514_);}
	.st3{opacity:0.5;}
	.st4{fill:url(#SVGID_00000036228906901879008560000012500983885299128195_);}
	.st5{fill:url(#SVGID_00000116226708177926065370000012672775799825355445_);}
	.st6{fill:url(#SVGID_00000039122529470071033100000016148112817779214727_);}
	.st7{opacity:0.51;fill:#4A73B8;enable-background:new    ;}
	.st8{fill:none;}
</style>
<path d="M348.5,240.2h-39l-7.5,18h-19.9l37.5-84.1h19.2l37.6,84.1H356L348.5,240.2z M342.4,225.4L329,193.2l-13.4,32.2H342.4z"/>
<path d="M444.6,193.6l-27.3,64.6H398l-27.1-64.6h19.4l17.9,43.9l18.5-43.9L444.6,193.6L444.6,193.6z"/>
<path d="M513.4,231.2h-48.9c0.8,3.8,3,7.2,6.2,9.5c3.3,2.3,7.4,3.5,12.3,3.5c3,0.1,6.1-0.4,9-1.5c2.7-1.1,5.2-2.7,7.2-4.8l10,10.8
	c-6.1,7-15,10.4-26.6,10.4c-7.3,0-13.7-1.4-19.4-4.3c-5.4-2.6-9.9-6.8-13-11.8c-3.1-5.2-4.6-11.1-4.5-17.2c-0.1-6,1.5-11.9,4.5-17.1
	c3-5,7.2-9.1,12.4-11.9c10.9-5.6,23.8-5.7,34.8-0.2c5.1,2.6,9.2,6.7,12.1,11.7c2.9,5.1,4.4,11,4.4,17.7
	C513.8,226.4,513.7,228.1,513.4,231.2z M469.6,210.4c-2.9,2.4-4.6,5.7-5.3,9.8h31.8c-0.6-4.1-2.4-7.4-5.3-9.8
	c-2.9-2.4-6.4-3.7-10.6-3.7C476.1,206.8,472.5,208,469.6,210.4z"/>
<linearGradient id="SVGID_1_" gradientUnits="userSpaceOnUse" x1="318.364" y1="-2402.7979" x2="193.5387" y2="-2271.146" gradientTransform="matrix(1 0 0 -1 -120.9449 -2100.6377)">
	<stop  offset="1.000000e-02" style="stop-color:#9290C6"/>
	<stop  offset="0.19" style="stop-color:#8990C7"/>
	<stop  offset="1" style="stop-color:#5E91CD"/>
</linearGradient>
<path class="st0" d="M215.6,276.4l-7.8-13.2H95.3l56.3-97.5l-14.7-25.6h-19c-8.3,0-15.9,4.5-20,11.7l-34.1,60.1c-4,7-4,15.7,0,22.7
	l23.8,42.1l10.2,18c4.1,7.2,11.7,11.7,20,11.7h67.4c8.3,0,15.9-4.4,20.1-11.7l10.2-17.9l0,0L215.6,276.4z"/>
<linearGradient id="SVGID_00000147902793248943275460000005822684612270332042_" gradientUnits="userSpaceOnUse" x1="251.0568" y1="-2393.5847" x2="318.445" y2="-2300.6348" gradientTransform="matrix(1 0 0 -1 -120.9449 -2100.6377)">
	<stop  offset="1.000000e-02" style="stop-color:#9290C6"/>
	<stop  offset="0.17" style="stop-color:#898EC6"/>
	<stop  offset="1" style="stop-color:#5C83C2"/>
</linearGradient>
<path style="fill:url(#SVGID_00000147902793248943275460000005822684612270332042_);" d="M207.9,263.2H95.5l0.5-0.3l37.7-22.6
	c5.8-3.8,10.2-6,14.3-6.7c0.1,0,0.2-0.1,0.3-0.1c0.3-0.1,0.5-0.1,0.8-0.1c0.5-0.1,0.9-0.1,1.4-0.1h0.9c0.6,0,1.4,0.1,2,0.2
	c4.3,0.6,8.9,2.7,15.2,6.3l39.1,23.2L207.9,263.2z"/>
<linearGradient id="SVGID_00000129184108943434428730000013342041036239718278_" gradientUnits="userSpaceOnUse" x1="272.6652" y1="-2408.0654" x2="272.6111" y2="-2336.791" gradientTransform="matrix(1 0 0 -1 -120.9449 -2100.6377)">
	<stop  offset="1.000000e-02" style="stop-color:#9290C6"/>
	<stop  offset="2.000000e-02" style="stop-color:#9190C6"/>
	<stop  offset="0.25" style="stop-color:#7D91C9"/>
	<stop  offset="0.47" style="stop-color:#6D92CB"/>
	<stop  offset="0.68" style="stop-color:#6291CC"/>
	<stop  offset="0.86" style="stop-color:#5E91CD"/>
</linearGradient>
<path style="fill:url(#SVGID_00000129184108943434428730000013342041036239718278_);" d="M215.6,276.4l-0.2,0.3l-10.2,17.9
	c-4.1,7.2-11.7,11.7-20,11.7H118c-8.3,0-15.9-4.5-20-11.7l-10.2-18l0,0l0,0l7.8-13.5l0.4-0.3l37.7-22.7c5.8-3.8,10.2-6,14.3-6.7
	c0.1,0,0.2-0.1,0.3-0.1c0.3-0.1,0.5-0.1,0.8-0.1c0.5-0.1,0.9-0.1,1.4-0.1h0.9c0.6,0,1.4,0.1,2,0.2c4.3,0.6,8.9,2.7,15.1,6.3
	l39.1,23.3l0.2,0.1L215.6,276.4z"/>
<g class="st3">
	
		<linearGradient id="SVGID_00000070797102048255000260000017633536712679715218_" gradientUnits="userSpaceOnUse" x1="253.131" y1="-2390.4465" x2="291.8281" y2="-2337.0696" gradientTransform="matrix(1 0 0 -1 -120.9449 -2100.6377)">
		<stop  offset="1.000000e-02" style="stop-color:#9290C6"/>
		<stop  offset="0.41" style="stop-color:#6D7DBC"/>
		<stop  offset="1" style="stop-color:#4268B0"/>
	</linearGradient>
	<path style="fill:url(#SVGID_00000070797102048255000260000017633536712679715218_);" d="M168.3,239.7c-14.9-8.6-20.4-8.9-34.8,0.5
		l-38.2,22.9l38.2-18.1c14.4-9.4,19.9-9.1,34.8-0.5l39.4,18.5L168.3,239.7z"/>
</g>
<linearGradient id="SVGID_00000094612899452940681280000009189658515698654617_" gradientUnits="userSpaceOnUse" x1="286.4767" y1="-2235.531" x2="360.3728" y2="-2369.6641" gradientTransform="matrix(1 0 0 -1 -120.9449 -2100.6377)">
	<stop  offset="1.000000e-02" style="stop-color:#9290C6"/>
	<stop  offset="2.000000e-02" style="stop-color:#9190C6"/>
	<stop  offset="0.25" style="stop-color:#7D91C9"/>
	<stop  offset="0.47" style="stop-color:#6D92CB"/>
	<stop  offset="0.68" style="stop-color:#6291CC"/>
	<stop  offset="0.86" style="stop-color:#5E91CD"/>
</linearGradient>
<path style="fill:url(#SVGID_00000094612899452940681280000009189658515698654617_);" d="M239.4,234.5l-23.9,42.2l0,0l0.2-0.3
	l-7.8-13.2l0,0l-56.1-97.6l-0.1,0.1l-14.8-25.6h48.4c8.3,0,15.9,4.5,20,11.7l34.1,60.1C243.3,218.9,243.3,227.5,239.4,234.5z"/>
<linearGradient id="SVGID_00000111162657105110223390000015611866666881013677_" gradientUnits="userSpaceOnUse" x1="-5760.769" y1="-2350.053" x2="-5866.1221" y2="-2238.9336" gradientTransform="matrix(-1 0 0 -1 -5701.9448 -2100.6377)">
	<stop  offset="1.000000e-02" style="stop-color:#9290C6"/>
	<stop  offset="0.19" style="stop-color:#8990C7"/>
	<stop  offset="1" style="stop-color:#5E91CD"/>
</linearGradient>
<path style="fill:url(#SVGID_00000111162657105110223390000015611866666881013677_);" d="M63.7,234.5l23.9,42.2l0,0l-0.2-0.3
	l7.8-13.2l0,0l56.1-97.6l0.1,0.1l14.7-25.6h-48.4c-8.3,0-15.9,4.5-20,11.7l-34.1,60.1C59.8,218.9,59.8,227.5,63.7,234.5z"/>
<polygon class="st7" points="166.1,140 151.5,165.4 154.2,169.8 "/>
<rect id="_切片_" x="23.4" y="108.1" class="st8" width="794" height="234.6"/>
</svg>
