<svg xmlns="http://www.w3.org/2000/svg" width="512" height="512" viewBox="0 0 512 512" version="1.1"><path d="M 241.500 1.603 C 207.107 4.228, 176.188 12.300, 148.277 25.937 C 122.085 38.736, 103.206 51.979, 82.629 71.986 C 42.840 110.674, 17.949 157.568, 8.310 212 C 5.177 229.696, 4.006 265.095, 5.950 283.342 C 12.166 341.671, 38.051 395.888, 79.444 437.281 C 142.461 500.298, 230.661 524.702, 317 503.011 C 356.032 493.205, 396.139 471.414, 423.322 445.244 C 430.801 438.044, 433.200 433.361, 433.200 425.964 C 433.200 408.220, 415.900 396.863, 400.500 404.498 C 397.750 405.862, 391.675 410.390, 387 414.562 C 349.322 448.180, 293.058 466.950, 241.728 463.025 C 201.661 459.961, 164.354 445.868, 132.874 421.904 C 124.695 415.678, 104 396.402, 104 395.010 C 104 394.605, 127.580 356.418, 156.400 310.151 L 208.801 226.028 209.276 271.764 C 209.796 321.769, 210.154 325.321, 215.906 337.613 C 219.410 345.100, 226.321 352.340, 232.804 355.315 C 236.358 356.946, 239.450 357.474, 245.521 357.485 C 252.553 357.498, 254.341 357.104, 260.021 354.292 C 267.838 350.421, 275.309 344.024, 281.263 336.103 C 283.693 332.871, 300.490 306.221, 318.590 276.879 L 351.500 223.532 352.098 256.516 C 352.793 294.815, 353.531 299.252, 362.150 316.960 C 366.599 326.102, 368.394 328.574, 376.391 336.571 C 383.943 344.123, 387.022 346.429, 394.021 349.777 C 405.779 355.402, 415.606 357.389, 428.365 356.721 C 440.197 356.102, 447.801 354.213, 457.500 349.484 C 474.085 341.397, 486.605 328.559, 495.520 310.500 C 503.654 294.022, 505.170 286.757, 505.738 261.524 C 506.022 248.885, 505.742 236.167, 505.035 229.524 C 498.909 172.017, 474.676 119.814, 435 78.650 C 413.161 55.992, 391.723 40.271, 364.500 26.948 C 339.639 14.781, 317.467 7.850, 291.297 4.062 C 277.904 2.124, 251.653 0.827, 241.500 1.603 M 227.314 50.555 C 134.802 64.048, 63.533 138.343, 52.483 232.809 C 49.980 254.208, 50.807 274.498, 55.089 296.713 C 59.177 317.921, 72.748 353.761, 75.568 350.798 C 76.248 350.084, 102.553 308.100, 134.025 257.500 C 165.496 206.900, 193.218 162.715, 195.629 159.312 C 203.906 147.628, 213.117 142.029, 224 142.066 C 238.657 142.115, 247.718 149.528, 253.258 166 C 255.378 172.305, 255.459 174.240, 255.972 230.406 L 256.500 288.313 285 242.114 C 315.263 193.058, 319.640 186.588, 328.743 177.456 C 339.405 166.761, 349.186 162, 360.497 162 C 376.907 162, 389.271 172.580, 395.557 192 C 397.100 196.765, 397.426 203.178, 398 240 C 398.624 280.071, 398.788 282.883, 400.858 289.208 C 403.792 298.170, 408.219 303.844, 414.936 307.250 C 424.656 312.180, 435.534 309.934, 445.337 300.975 C 458.033 289.372, 462.072 270.559, 458.964 237.500 C 449.904 141.113, 377.060 63.663, 283.148 50.564 C 269.453 48.654, 240.378 48.649, 227.314 50.555" stroke="none" fill="#181c1c" fill-rule="evenodd"/><path d="" stroke="none" fill="#141c1c" fill-rule="evenodd"/></svg>