<svg xmlns="http://www.w3.org/2000/svg" width="800" height="800" viewBox="0 0 800 800" version="1.1"><path d="M 375 31.619 C 322.910 36.314, 280.790 47.768, 237.500 69.012 C 183.079 95.719, 134.406 137.189, 99.019 187 C 43.307 265.423, 20.655 362.186, 35.593 457.939 C 43.364 507.748, 61.755 556.009, 89.254 598.750 C 92.528 603.837, 95.553 608, 95.978 608 C 97.052 608, 105.867 585.302, 111.316 568.500 C 124.544 527.719, 130.870 490.198, 137.457 413.462 C 142.551 354.118, 144.781 339.434, 151.980 317.849 C 165.760 276.528, 192.714 247.203, 237.588 224.710 C 260.031 213.460, 295.900 200.944, 316 197.350 C 335.499 193.863, 367.219 195.347, 393.059 200.955 C 400.076 202.478, 401.975 202.568, 404.955 201.519 C 406.905 200.832, 412.904 199.478, 418.287 198.510 C 430.270 196.356, 453.012 196.858, 462.500 199.488 C 480.215 204.396, 493.614 214.850, 501.353 229.800 L 505.857 238.500 521.072 244.387 C 549.496 255.384, 568.001 261.896, 588.273 268.033 C 613.254 275.595, 624.356 279.677, 638.500 286.496 C 695.735 314.093, 711.449 356.181, 682.601 404.614 C 672.150 422.159, 665.365 429.815, 621.985 473 C 598.505 496.375, 575.280 520, 570.375 525.500 C 502.845 601.219, 469.055 666.653, 464.417 730.685 C 463.687 740.772, 464.668 759.846, 466.032 762.051 C 466.752 763.216, 469.329 762.901, 481.641 760.138 C 529.473 749.408, 579.289 726.467, 619.187 696.797 C 660.158 666.328, 697.734 623.770, 721.427 581 C 724.626 575.225, 728.341 568.861, 729.683 566.857 C 733.296 561.464, 745.127 533.455, 750.320 518 C 778.560 433.960, 775.540 341.787, 741.857 259.733 C 731.794 235.219, 712.926 202.740, 694.667 178.500 C 644.297 111.631, 571.216 62.808, 491.141 42.533 C 460.012 34.651, 439.221 31.984, 405.500 31.549 C 391.200 31.365, 377.475 31.396, 375 31.619 M 422.426 52.018 C 402.969 54.072, 402.279 55.571, 419.256 58.903 C 461.578 67.208, 488.933 75.470, 537 94.466 C 568.627 106.965, 588.342 117.021, 602.500 127.877 C 627.298 146.892, 644.946 168.150, 669.185 208.202 C 695.364 251.459, 717.283 304.893, 730.838 358.500 C 735.843 378.292, 742.244 408.582, 743.575 418.772 C 744.280 424.171, 745.624 426.227, 746.996 424.007 C 748.669 421.300, 750.335 399.513, 750.285 381 C 750.134 325.079, 735.510 274.739, 704.903 224.772 C 683.725 190.199, 663.695 169.055, 609.500 124.062 C 571.521 92.531, 555.941 81.571, 534.980 71.640 C 502.178 56.100, 457.520 48.314, 422.426 52.018" stroke="none" fill="#fae988" fill-rule="evenodd"/><path d="M 367.500 0.621 C 280.206 9.151, 206.120 39.712, 141.500 93.850 C 129.920 103.552, 103.552 129.920, 93.850 141.500 C 43.748 201.303, 13.016 271.399, 2.438 350 C 0.186 366.736, -0.664 415.299, 0.961 434.370 C 12.623 571.169, 93.047 691.939, 215 755.785 C 230.450 763.874, 254.712 774.429, 262.537 776.468 C 265.460 777.229, 272.723 779.425, 278.676 781.348 C 300.497 788.396, 323.957 793.552, 350.500 797.132 C 365.290 799.127, 371.725 799.425, 400 799.425 C 428.275 799.425, 434.710 799.127, 449.500 797.132 C 476.043 793.552, 499.503 788.396, 521.324 781.348 C 527.277 779.425, 534.540 777.229, 537.463 776.468 C 540.386 775.706, 549.241 772.331, 557.139 768.968 C 652.827 728.221, 729.262 651.118, 769.872 554.376 C 784.309 519.984, 794.957 478.002, 798.050 443.277 C 798.676 436.250, 799.595 429.719, 800.094 428.764 C 801.375 426.308, 801.284 369.706, 800 370.500 C 799.390 370.877, 799 369.374, 799 366.651 C 799 359.233, 796.082 338.515, 792.499 320.500 C 779.467 254.960, 749.960 193.793, 706.150 141.500 C 696.448 129.920, 670.080 103.552, 658.500 93.850 C 606.175 50.013, 545.080 20.541, 479.500 7.501 C 449.786 1.592, 440.785 0.749, 404.500 0.477 C 386.350 0.341, 369.700 0.406, 367.500 0.621 M 374 30.620 C 321.981 35.296, 279.786 46.770, 236.500 68.012 C 182.079 94.719, 133.406 136.189, 98.019 186 C 42.143 264.653, 19.470 362.214, 34.589 458.939 C 41.951 506.040, 60.051 554.829, 84.899 594.546 C 93.329 608.021, 94.454 609.423, 96.275 608.725 C 98.220 607.978, 108.571 581.648, 113.856 564 C 125.962 523.579, 131.648 489.586, 137.442 423 C 138.806 407.325, 140.152 391.084, 140.433 386.908 C 142.206 360.584, 146.890 334.176, 152.843 316.937 C 171.410 263.167, 216.659 226.834, 294 203.591 C 315.321 197.184, 320.377 196.489, 345 196.579 C 364.128 196.649, 368.155 196.968, 381.500 199.466 C 389.750 201.010, 398.558 202.420, 401.074 202.599 C 412.064 203.381, 452.988 215.436, 477.162 225.014 C 489.776 230.011, 505.087 237.246, 504.433 237.900 C 503.140 239.193, 561.121 260.508, 586.500 268.069 C 611.265 275.447, 625.292 280.657, 639.500 287.756 C 667.641 301.816, 686.248 319.851, 692.960 339.575 C 696.414 349.724, 696.857 363.745, 694.089 375.377 C 691.159 387.694, 681.211 408.313, 676.023 412.824 C 674.959 413.750, 674.923 413.929, 675.905 413.420 C 676.836 412.936, 677.065 413.085, 676.585 413.862 C 676.187 414.506, 675.469 414.790, 674.989 414.493 C 674.509 414.197, 668.578 417.616, 661.808 422.091 C 623.755 447.248, 566.326 467.662, 516.914 473.595 C 498.643 475.788, 464.719 475.834, 451.988 473.681 C 437.868 471.294, 425.684 467.488, 414.750 462.048 C 409.387 459.381, 405 457.546, 405 457.972 C 405 458.397, 406.913 460.506, 409.250 462.657 C 430.985 482.663, 467.490 491.593, 506.585 486.468 C 543.155 481.674, 579.976 470.072, 617.500 451.517 C 638.689 441.040, 654.137 431.678, 665.914 422.175 C 684.999 406.776, 666.470 427.718, 620.504 473.500 C 572.204 521.607, 553.523 542.325, 530.783 573 C 493.846 622.828, 471.810 670.806, 465.512 715.117 C 463.996 725.784, 463.528 749.425, 464.648 758.750 C 465.430 765.259, 465.182 765.236, 485 760.601 C 584.129 737.417, 671.066 672.229, 721.902 582.962 C 725.805 576.108, 728.999 569.712, 728.999 568.750 C 729 567.788, 729.385 567, 729.856 567 C 730.327 567, 732.834 562.428, 735.428 556.840 C 751.873 521.408, 762.502 484.053, 767.676 443.500 C 769.892 426.138, 770.203 377.298, 768.202 361 C 764.060 327.272, 756.107 294.229, 745.816 268 C 740.465 254.361, 730.724 233, 729.855 233 C 729.385 233, 729 232.360, 729 231.577 C 729 230.794, 726.045 224.873, 722.433 218.417 C 673.743 131.403, 588.506 65.933, 492.141 41.533 C 460.624 33.553, 440.255 30.970, 405.500 30.545 C 390.650 30.364, 376.475 30.398, 374 30.620 M 332.500 238.629 C 323.917 240.426, 312.789 245.548, 304.291 251.612 C 292.091 260.318, 281.356 276.583, 277.595 292.064 C 275.500 300.685, 275.511 317.390, 277.618 325.936 C 282.833 347.096, 296.785 364.210, 316.497 373.626 C 342.249 385.926, 371.585 382.394, 393.447 364.361 C 409.851 350.831, 419.234 330.686, 419.234 309 C 419.234 280.782, 403.937 256.512, 378.503 244.380 C 363.711 237.325, 348.068 235.369, 332.500 238.629 M 595.241 366.995 C 590.514 369.876, 588.007 374.557, 588.007 380.500 C 588.007 389.831, 594.205 395.989, 603.602 395.996 C 610.174 396.001, 614.718 393.073, 617.812 386.839 C 619.531 383.377, 619.958 381.290, 619.473 378.709 C 617.885 370.243, 611.782 365.007, 603.500 365.007 C 600.271 365.007, 597.346 365.711, 595.241 366.995 M 0.442 400 C 0.442 416.225, 0.580 422.863, 0.748 414.750 C 0.916 406.637, 0.916 393.362, 0.748 385.250 C 0.580 377.137, 0.442 383.775, 0.442 400" stroke="none" fill="#8cc63f" fill-rule="evenodd"/><path d="M 341.500 259.698 C 330.368 261.174, 321.441 265.561, 312.763 273.820 C 284.216 300.987, 297.072 348.449, 335.703 358.511 C 369.319 367.267, 402.257 337.415, 397.208 302.770 C 393.267 275.735, 367.983 256.185, 341.500 259.698 M 662.500 421.596 C 625.958 446.414, 566.539 467.636, 516.914 473.595 C 498.643 475.788, 464.719 475.834, 451.988 473.681 C 437.868 471.294, 425.684 467.488, 414.750 462.048 C 409.388 459.381, 405 457.546, 405 457.972 C 405 458.397, 406.913 460.506, 409.250 462.657 C 430.985 482.663, 467.490 491.593, 506.585 486.468 C 541.741 481.859, 579.119 470.302, 614.500 453.100 C 639.663 440.866, 657.671 429.679, 671 418.002 C 677.879 411.975, 674.663 413.335, 662.500 421.596" stroke="none" fill="#58595b" fill-rule="evenodd"/><path d="M 423.500 198.098 C 420.200 198.567, 414.136 199.691, 410.024 200.594 L 402.547 202.237 419.524 206.504 C 445.686 213.079, 477.516 224.166, 495.705 233.038 C 499.990 235.128, 503.638 236.695, 503.813 236.520 C 504.513 235.821, 497.926 224.085, 494.158 219.319 C 481.038 202.721, 452.098 194.029, 423.500 198.098" stroke="none" fill="#009344" fill-rule="evenodd"/><path d="M 422.426 52.018 C 402.969 54.072, 402.279 55.571, 419.256 58.903 C 461.578 67.208, 488.933 75.470, 537 94.466 C 568.627 106.965, 588.342 117.021, 602.500 127.877 C 627.298 146.892, 644.946 168.150, 669.185 208.202 C 695.364 251.459, 717.283 304.893, 730.838 358.500 C 735.843 378.292, 742.244 408.582, 743.575 418.772 C 744.280 424.171, 745.624 426.227, 746.996 424.007 C 748.669 421.300, 750.335 399.513, 750.285 381 C 750.134 325.079, 735.510 274.739, 704.903 224.772 C 683.725 190.199, 663.695 169.055, 609.500 124.062 C 571.521 92.531, 555.941 81.571, 534.980 71.640 C 502.178 56.100, 457.520 48.314, 422.426 52.018 M 339.810 238.082 C 308.675 241.530, 283.927 264.249, 277.580 295.208 C 270.299 330.725, 292.105 367.014, 327 377.450 C 364.275 388.597, 403.241 367.855, 415.825 330.167 C 418.068 323.451, 418.385 320.825, 418.383 309 C 418.381 297.049, 418.075 294.582, 415.716 287.500 C 411.872 275.959, 406.639 267.617, 397.466 258.408 C 391.047 251.963, 387.545 249.384, 380.265 245.740 C 367.210 239.204, 353.356 236.582, 339.810 238.082 M 335 260.593 C 325.963 262.993, 318.883 267.119, 311.927 274.038 C 301.939 283.974, 297.035 295.647, 297.012 309.540 C 296.974 332.246, 311.834 351.914, 333.932 358.405 C 340.911 360.455, 354.089 360.455, 361.068 358.405 C 373.928 354.627, 386.727 344.396, 392.260 333.470 C 399.959 318.267, 399.951 300.098, 392.239 285.575 C 388.592 278.705, 377.571 267.910, 370.912 264.683 C 359.407 259.109, 346.235 257.608, 335 260.593 M 597.450 366.407 C 590.955 369.236, 586.970 377.034, 588.488 383.946 C 589.876 390.265, 597.090 396, 603.652 396 C 608.322 396, 614.445 392.331, 616.816 388.114 C 623.992 375.345, 610.822 360.582, 597.450 366.407" stroke="none" fill="#fbfbf9" fill-rule="evenodd"/><path d="M 374 30.620 C 321.981 35.296, 279.786 46.770, 236.500 68.012 C 182.079 94.719, 133.406 136.189, 98.019 186 C 42.143 264.653, 19.470 362.214, 34.589 458.939 C 41.951 506.040, 60.051 554.829, 84.899 594.546 C 93.329 608.021, 94.454 609.423, 96.275 608.725 C 98.211 607.982, 108.540 581.732, 113.874 564 C 118.250 549.452, 124.033 526.505, 123.948 524.025 C 123.919 523.186, 121.703 531.050, 119.022 541.500 C 112.443 567.141, 98.277 608, 95.965 608 C 94.174 608, 78.412 581.849, 69.683 564.396 C 29.702 484.455, 20.447 393.093, 43.457 305.500 C 77.265 176.804, 180.831 74.666, 310.500 42.143 C 343.071 33.974, 363.616 31.540, 400 31.540 C 436.384 31.540, 456.929 33.974, 489.500 42.143 C 587.532 66.731, 673.699 132.834, 722.078 220.564 C 725.586 226.925, 728.595 231.715, 728.764 231.207 C 728.934 230.699, 726.101 224.973, 722.469 218.482 C 673.741 131.398, 588.537 65.941, 492.141 41.533 C 460.624 33.553, 440.255 30.970, 405.500 30.545 C 390.650 30.364, 376.475 30.398, 374 30.620 M 338.784 195.738 C 341.689 195.941, 346.189 195.939, 348.784 195.734 C 351.378 195.528, 349 195.363, 343.500 195.365 C 338 195.368, 335.878 195.536, 338.784 195.738 M 235.500 225.808 C 228.350 229.522, 219.800 234.294, 216.500 236.412 C 200.006 246.996, 182.621 263.025, 172.738 276.760 C 167.044 284.672, 159.679 297.012, 160.287 297.621 C 160.473 297.807, 162.531 294.610, 164.860 290.517 C 179.399 264.963, 203.195 243.625, 236.395 226.372 C 244.153 222.341, 250.050 219.045, 249.500 219.048 C 248.950 219.051, 242.650 222.093, 235.500 225.808 M 397.958 258.250 C 400.410 260.863, 402.548 263, 402.708 263 C 403.459 263, 402.665 262.102, 398.250 257.958 L 393.500 253.500 397.958 258.250 M 633.083 284.383 C 634.101 285.318, 648 291.973, 648 291.525 C 648 290.967, 634.445 284, 633.358 284 C 632.978 284, 632.854 284.172, 633.083 284.383 M 651.066 293.285 C 651.377 293.659, 655.294 296.560, 659.770 299.732 C 664.247 302.905, 670.292 307.458, 673.205 309.851 L 678.500 314.203 673.500 309.559 C 667.453 303.942, 648.483 290.181, 651.066 293.285 M 696.328 359.500 C 696.333 363.350, 696.513 364.802, 696.730 362.728 C 696.946 360.653, 696.943 357.503, 696.722 355.728 C 696.501 353.952, 696.324 355.650, 696.328 359.500 M 398 359.500 C 395.571 361.975, 393.809 364, 394.084 364 C 394.359 364, 396.571 361.975, 399 359.500 C 401.429 357.025, 403.191 355, 402.916 355 C 402.641 355, 400.429 357.025, 398 359.500 M 769.320 385 C 769.320 388.575, 769.502 390.038, 769.723 388.250 C 769.945 386.462, 769.945 383.538, 769.723 381.750 C 769.502 379.962, 769.320 381.425, 769.320 385 M 139.300 394 C 139.300 397.025, 139.487 398.262, 139.716 396.750 C 139.945 395.238, 139.945 392.762, 139.716 391.250 C 139.487 389.738, 139.300 390.975, 139.300 394 M 686.202 396.522 C 685.005 398.985, 684.236 401, 684.493 401 C 685.170 401, 689.211 392.877, 688.758 392.425 C 688.549 392.215, 687.398 394.059, 686.202 396.522 M 138.300 406 C 138.300 409.025, 138.487 410.262, 138.716 408.750 C 138.945 407.238, 138.945 404.762, 138.716 403.250 C 138.487 401.738, 138.300 402.975, 138.300 406 M 769.328 415.500 C 769.333 419.350, 769.513 420.802, 769.730 418.728 C 769.946 416.653, 769.943 413.503, 769.722 411.728 C 769.501 409.952, 769.324 411.650, 769.328 415.500 M 137.300 418 C 137.300 421.025, 137.487 422.262, 137.716 420.750 C 137.945 419.238, 137.945 416.762, 137.716 415.250 C 137.487 413.738, 137.300 414.975, 137.300 418 M 666.392 426.250 C 663.183 430.238, 652.013 442.275, 641.569 453 C 627.195 467.762, 625.936 469.220, 636.390 459 C 650.485 445.221, 667.155 427.400, 670.998 422.003 C 674.924 416.490, 672.295 418.913, 666.392 426.250 M 136.286 429.500 C 136.294 432.250, 136.488 433.256, 136.718 431.736 C 136.947 430.216, 136.941 427.966, 136.704 426.736 C 136.467 425.506, 136.279 426.750, 136.286 429.500 M 135.286 440.500 C 135.294 443.250, 135.488 444.256, 135.718 442.736 C 135.947 441.216, 135.941 438.966, 135.704 437.736 C 135.467 436.506, 135.279 437.750, 135.286 440.500 M 134.286 450.500 C 134.294 453.250, 134.488 454.256, 134.718 452.736 C 134.947 451.216, 134.941 448.966, 134.704 447.736 C 134.467 446.506, 134.279 447.750, 134.286 450.500 M 600.488 493.250 L 584.500 509.500 600.750 493.512 C 615.847 478.658, 617.452 477, 616.738 477 C 616.594 477, 609.282 484.313, 600.488 493.250 M 129.571 487.071 C 129.189 490.448, 129.082 493.416, 129.333 493.666 C 129.584 493.917, 130.109 491.367, 130.500 488 C 130.891 484.633, 130.998 481.665, 130.738 481.405 C 130.479 481.145, 129.953 483.695, 129.571 487.071 M 127.105 503.105 C 126.424 507.557, 126.064 511.397, 126.305 511.638 C 126.546 511.879, 127.309 508.442, 128 504 C 128.691 499.558, 129.051 495.718, 128.800 495.467 C 128.550 495.216, 127.787 498.653, 127.105 503.105 M 576 518.500 C 573.571 520.975, 571.809 523, 572.084 523 C 572.359 523, 574.571 520.975, 577 518.500 C 579.429 516.025, 581.191 514, 580.916 514 C 580.641 514, 578.429 516.025, 576 518.500 M 723 578.295 C 699.541 621.621, 660.781 665.865, 619.187 696.797 C 579.289 726.467, 529.473 749.408, 481.641 760.138 C 468.918 762.993, 466.766 763.245, 465.962 761.973 C 465.180 760.736, 465.028 760.780, 465.015 762.250 C 464.993 764.786, 468.257 764.517, 485 760.601 C 575.543 739.425, 656.529 682.948, 708.272 604.899 C 718.670 589.215, 729.371 570.574, 728.836 569.078 C 728.651 568.560, 726.025 572.708, 723 578.295" stroke="none" fill="#b6d15b" fill-rule="evenodd"/></svg>