<svg xmlns="http://www.w3.org/2000/svg" width="315" height="320" viewBox="0 0 315 320" version="1.1"><path d="M 171.750 0.662 C 172.438 0.940, 173.563 0.940, 174.250 0.662 C 174.938 0.385, 174.375 0.158, 173 0.158 C 171.625 0.158, 171.063 0.385, 171.750 0.662 M 103.644 69.169 C 101.257 77.041, 93.132 104.594, 88.905 119.154 L 86.973 125.807 81.736 127.026 C 55.883 133.045, 34.365 144.483, 28.958 155.082 C 17.138 178.251, 58.943 200.194, 126 206.018 C 133.425 206.662, 139.708 207.393, 139.963 207.642 C 140.772 208.430, 136.976 235.944, 133.981 251 C 130.060 270.713, 125.849 286.692, 119.953 304.235 C 117.229 312.340, 115 319.202, 115 319.485 C 115 319.768, 134.118 320, 157.485 320 L 199.971 320 197.869 314.750 C 188.180 290.550, 176.965 242.638, 174.461 214.750 C 173.819 207.602, 173.910 207, 175.633 206.997 C 176.660 206.995, 182.675 206.525, 189 205.953 C 233.636 201.917, 268.065 190.732, 281.356 175.949 C 293.106 162.880, 286.633 148.943, 263.595 137.710 C 256.269 134.138, 240.341 128.695, 231.941 126.894 L 227.155 125.867 225.163 119.184 C 224.068 115.508, 219.909 101.250, 215.922 87.500 C 211.935 73.750, 208.392 62.168, 208.049 61.763 C 207.707 61.358, 204.402 71.258, 200.706 83.763 C 197.010 96.268, 193.101 109.425, 192.021 113 L 190.056 119.500 157.023 119.500 L 123.990 119.500 123.051 116.500 C 122.535 114.850, 118.659 101.800, 114.439 87.500 C 110.219 73.200, 106.632 61.351, 106.468 61.169 C 106.305 60.986, 105.034 64.586, 103.644 69.169 M 92.450 149.407 C 82.309 153.824, 80.264 166.634, 88.540 173.901 C 94.910 179.494, 103.243 178.904, 108.901 172.460 C 114.228 166.393, 113.947 158.186, 108.227 152.729 C 103.364 148.090, 98.045 146.970, 92.450 149.407 M 204.450 149.407 C 194.309 153.824, 192.264 166.634, 200.540 173.901 C 213.919 185.648, 232.708 167.502, 221.257 153.893 C 216.694 148.471, 210.435 146.800, 204.450 149.407" stroke="none" fill="#f9f9f9" fill-rule="evenodd"/><path d="M 134.526 1.523 C 67.635 12.404, 17.636 60.806, 2.842 129 C 0.842 138.220, 0.564 142.304, 0.564 162.500 C 0.564 182.696, 0.842 186.780, 2.842 196 C 13.928 247.103, 45.917 288.721, 90.436 309.963 C 104.342 316.598, 113.959 319.683, 115.083 317.870 C 116.618 315.396, 124.817 289.748, 127.989 277.500 C 133.803 255.049, 141.648 209.284, 139.963 207.642 C 139.708 207.393, 133.425 206.662, 126 206.018 C 67.439 200.932, 27 183.360, 27 163 C 27 154.154, 34.105 146.231, 48.812 138.675 C 57.161 134.386, 70.705 129.594, 81.736 127.026 L 86.973 125.807 88.905 119.154 C 97.202 90.577, 105.362 63.285, 105.925 62.230 C 106.493 61.164, 109.874 71.863, 122.601 115 L 123.929 119.500 156.992 119.500 L 190.056 119.500 192.021 113 C 193.101 109.425, 197.010 96.268, 200.706 83.763 C 204.402 71.258, 207.707 61.358, 208.049 61.763 C 208.392 62.168, 211.935 73.750, 215.922 87.500 C 219.909 101.250, 224.068 115.508, 225.163 119.184 L 227.155 125.867 231.941 126.894 C 240.341 128.695, 256.269 134.138, 263.595 137.710 C 286.633 148.943, 293.106 162.880, 281.356 175.949 C 268.065 190.732, 233.636 201.917, 189 205.953 C 182.675 206.525, 176.660 206.995, 175.633 206.997 C 173.910 207, 173.819 207.602, 174.461 214.750 C 176.548 238.001, 186.426 282.985, 194.147 304.408 C 196.346 310.509, 198.390 316.288, 198.689 317.250 C 199.400 319.536, 200.260 319.472, 209.075 316.476 C 260.220 299.090, 300.686 251.831, 311.940 196.343 C 313.073 190.757, 314 184.821, 314 183.152 C 314 181.483, 314.450 179.840, 315 179.500 C 315.605 179.126, 316 171.970, 316 161.382 C 316 149.970, 315.652 144.097, 315 144.500 C 314.414 144.862, 314 143.813, 314 141.966 C 314 136.908, 310.133 119.261, 306.886 109.500 C 300.262 89.587, 288.223 68.608, 274.310 52.728 C 252.479 27.813, 221.017 9.823, 187.102 2.862 C 174.111 0.195, 146.941 -0.497, 134.526 1.523 M 0.413 162.500 C 0.414 172.400, 0.564 176.315, 0.746 171.199 C 0.928 166.084, 0.927 157.984, 0.744 153.199 C 0.561 148.415, 0.412 152.600, 0.413 162.500 M 92.450 149.407 C 82.309 153.824, 80.264 166.634, 88.540 173.901 C 94.910 179.494, 103.243 178.904, 108.901 172.460 C 114.228 166.393, 113.947 158.186, 108.227 152.729 C 103.364 148.090, 98.045 146.970, 92.450 149.407 M 204.450 149.407 C 194.309 153.824, 192.264 166.634, 200.540 173.901 C 213.919 185.648, 232.708 167.502, 221.257 153.893 C 216.694 148.471, 210.435 146.800, 204.450 149.407" stroke="none" fill="#050505" fill-rule="evenodd"/></svg>