<svg xmlns="http://www.w3.org/2000/svg" width="2019" height="2019" viewBox="0 0 2019 2019" version="1.1"><path d="M 595.269 1.483 C 546.123 8.080, 501.272 27.134, 463 57.672 C 451.916 66.516, 431.173 87.246, 422.646 98 C 391.217 137.636, 372.039 182.520, 365.391 232 C 363.161 248.597, 363.134 280.233, 365.336 296.500 C 366.229 303.100, 382.719 395.877, 401.980 502.672 C 421.241 609.467, 436.997 697.667, 436.994 698.672 C 436.989 700.046, 433.947 701.846, 424.744 705.919 C 408.157 713.261, 367.550 733.554, 351 742.773 C 237.334 806.086, 148.344 884.286, 90 972.125 C 75.077 994.591, 66.306 1009.960, 54.599 1034.153 C 31.658 1081.560, 19.145 1123.294, 11.767 1177 C 9.526 1193.312, 9.500 1194.744, 9.500 1302.500 C 9.500 1421.502, 9.445 1420.138, 15.595 1454 C 41.770 1598.113, 136.450 1728.083, 287.500 1827.253 C 448.769 1933.132, 650.367 1997.149, 877 2014.449 C 918.100 2017.587, 932.529 2018.140, 987.587 2018.693 C 1044.431 2019.264, 1076.969 2018.472, 1121 2015.444 C 1308.621 2002.543, 1480.171 1958.085, 1624.500 1884.959 C 1677.132 1858.292, 1737.433 1821.268, 1777.740 1790.872 C 1903.294 1696.190, 1981.105 1578.736, 2002.916 1450.976 C 2008.537 1418.045, 2008.500 1419.042, 2008.500 1302.500 C 2008.500 1195.714, 2008.474 1194.315, 2006.229 1178 C 1996.223 1105.301, 1972.521 1043.068, 1930.388 978.868 C 1860.468 872.328, 1740.484 776.170, 1593.500 708.880 C 1574.915 700.371, 1574.507 700.119, 1574.816 697.341 C 1574.990 695.778, 1590.433 609.675, 1609.133 506 C 1627.833 402.325, 1643.739 312.775, 1644.479 307 C 1652.327 245.813, 1637.951 180.686, 1604.939 127.882 C 1562.763 60.420, 1497.404 16.364, 1419.500 2.884 C 1404.136 0.225, 1368.156 -0.808, 1351.745 0.938 C 1287.332 7.793, 1225.356 39.157, 1182.758 86.457 C 1147.330 125.796, 1126.277 168.547, 1116.254 221.500 L 1113.604 235.500 1113.276 414.097 L 1112.948 592.693 1107.724 591.838 C 1084.287 588.001, 1032.751 585.418, 1000.500 586.463 C 989.500 586.820, 966.325 588.175, 949 589.474 C 931.675 590.773, 912.005 592.110, 905.289 592.444 L 893.079 593.052 892.730 417.776 C 892.412 257.580, 892.233 241.511, 890.646 231 C 881.550 170.737, 856.678 120.722, 815.023 78.929 C 799.467 63.322, 789.274 54.800, 773.815 44.475 C 741.737 23.050, 708.161 9.785, 668.500 2.867 C 652.938 0.152, 611.074 -0.639, 595.269 1.483 M 1356 77.090 C 1316.794 82.137, 1281.023 99.050, 1252.802 125.883 C 1219.803 157.260, 1200.645 196.407, 1196.048 241.856 C 1195.353 248.718, 1195 323.530, 1195 463.606 C 1195 579.873, 1194.662 674.989, 1194.250 674.976 C 1193.838 674.962, 1191.475 674.480, 1189 673.904 C 1176.918 671.091, 1161.061 669.889, 1124.500 669.014 C 1103.050 668.500, 1077.625 667.373, 1068 666.508 C 1058.375 665.644, 1045.550 664.505, 1039.500 663.977 C 1024.859 662.699, 956.114 662.734, 936.830 664.029 C 928.398 664.595, 916.325 665.741, 910 666.575 C 903.675 667.409, 892.425 668.503, 885 669.005 C 877.575 669.507, 860.379 671.061, 846.787 672.459 C 833.195 673.856, 819.357 675, 816.037 675 L 810 675 810 462.378 C 810 275.759, 809.811 248.457, 808.453 239.128 C 797.750 165.591, 743.931 105.734, 672.159 87.540 C 639.199 79.185, 604.113 80.415, 571.694 91.060 C 510.492 111.157, 463.375 163.856, 449.998 227.174 C 444.498 253.209, 445.001 275.131, 451.923 311 C 455.531 329.697, 531.414 749.395, 532.173 754.851 C 532.469 756.975, 531.540 757.580, 522.500 761.148 C 412.700 804.484, 322.117 858.312, 248.471 923.986 C 233.230 937.577, 204.588 967.033, 192.100 981.959 C 131.153 1054.805, 98.394 1130.220, 92.003 1212.395 C 90.661 1229.648, 90.690 1393.073, 92.038 1409.696 C 96.276 1461.959, 113.685 1516.985, 141.504 1566.045 C 148.734 1578.795, 169.767 1610.082, 179.457 1622.500 C 307.849 1787.041, 557.167 1903.649, 847.500 1934.949 C 906.788 1941.341, 953.483 1943.407, 1022.785 1942.704 C 1076.996 1942.155, 1090.272 1941.582, 1133 1937.945 C 1339.490 1920.369, 1531.346 1858.911, 1674.500 1764.485 C 1720.896 1733.881, 1756.013 1705.049, 1794 1666.372 C 1835.884 1623.727, 1862.666 1587.385, 1886.021 1541.500 C 1910.634 1493.141, 1924.305 1442.531, 1926.622 1391.191 L 1927.308 1376 1930.154 1376 L 1933 1376 1933 1303 L 1933 1230 1930.106 1230 L 1927.212 1230 1926.577 1220.750 C 1922.810 1165.901, 1911.105 1124.328, 1883.432 1067.500 C 1842.999 984.470, 1769.546 907.611, 1670.500 844.695 C 1620.669 813.042, 1563.469 784.145, 1504.500 760.834 C 1493.500 756.486, 1483.478 752.500, 1482.228 751.976 C 1480.538 751.267, 1480.087 750.444, 1480.469 748.761 C 1481.837 742.729, 1560.985 302.507, 1561.871 296 C 1566.065 265.206, 1563.188 231.859, 1553.894 203.555 C 1531.455 135.212, 1473.512 86.699, 1403.338 77.500 C 1391.188 75.907, 1366.829 75.696, 1356 77.090 M 640.075 1042.022 C 601.947 1050.068, 571.298 1086.592, 557.971 1139.864 C 553.819 1156.462, 552 1172.444, 552 1192.327 C 552 1218.099, 554.891 1237.407, 561.983 1259 C 581.996 1319.936, 625.816 1353.251, 670.500 1341.501 C 711.496 1330.720, 744.242 1281.313, 752.023 1218.500 C 752.637 1213.550, 753.138 1201.850, 753.138 1192.500 C 753.138 1166.709, 750.190 1147.405, 742.910 1125.540 C 728.704 1082.870, 703.521 1053.709, 672.500 1044.008 C 664.580 1041.532, 647.388 1040.478, 640.075 1042.022 M 1339 1042.560 C 1328.642 1044.792, 1321.121 1048.012, 1311.964 1054.134 C 1280.504 1075.169, 1258.257 1119.097, 1252.938 1170.689 C 1251.449 1185.131, 1252.231 1213.716, 1254.478 1226.986 C 1266.621 1298.689, 1309.138 1347.058, 1357.034 1343.658 C 1407.564 1340.072, 1447.343 1283.880, 1453.185 1207.838 C 1456.567 1163.813, 1445.457 1117.443, 1423.693 1084.752 C 1401.971 1052.122, 1369.558 1035.974, 1339 1042.560" stroke="none" fill="#643404" fill-rule="evenodd"/><path d="M 1356 77.090 C 1316.794 82.137, 1281.023 99.050, 1252.802 125.883 C 1219.803 157.260, 1200.645 196.407, 1196.048 241.856 C 1195.353 248.718, 1195 323.530, 1195 463.606 C 1195 579.873, 1194.662 674.989, 1194.250 674.976 C 1193.838 674.962, 1191.475 674.480, 1189 673.904 C 1176.918 671.091, 1161.061 669.889, 1124.500 669.014 C 1103.050 668.500, 1077.625 667.373, 1068 666.508 C 1058.375 665.644, 1045.550 664.505, 1039.500 663.977 C 1024.859 662.699, 956.114 662.734, 936.830 664.029 C 928.398 664.595, 916.325 665.741, 910 666.575 C 903.675 667.409, 892.425 668.503, 885 669.005 C 877.575 669.507, 860.379 671.061, 846.787 672.459 C 833.195 673.856, 819.357 675, 816.037 675 L 810 675 810 462.378 C 810 275.759, 809.811 248.457, 808.453 239.128 C 797.750 165.591, 743.931 105.734, 672.159 87.540 C 639.199 79.185, 604.113 80.415, 571.694 91.060 C 510.492 111.157, 463.375 163.856, 449.998 227.174 C 444.498 253.209, 445.001 275.131, 451.923 311 C 455.531 329.697, 531.414 749.395, 532.173 754.851 C 532.469 756.975, 531.540 757.580, 522.500 761.148 C 412.700 804.484, 322.117 858.312, 248.471 923.986 C 233.230 937.577, 204.588 967.033, 192.100 981.959 C 131.153 1054.805, 98.394 1130.220, 92.003 1212.395 C 90.661 1229.648, 90.690 1393.073, 92.038 1409.696 C 96.276 1461.959, 113.685 1516.985, 141.504 1566.045 C 148.734 1578.795, 169.767 1610.082, 179.457 1622.500 C 307.849 1787.041, 557.167 1903.649, 847.500 1934.949 C 906.788 1941.341, 953.483 1943.407, 1022.785 1942.704 C 1076.996 1942.155, 1090.272 1941.582, 1133 1937.945 C 1339.490 1920.369, 1531.346 1858.911, 1674.500 1764.485 C 1720.896 1733.881, 1756.013 1705.049, 1794 1666.372 C 1835.884 1623.727, 1862.666 1587.385, 1886.021 1541.500 C 1910.634 1493.141, 1924.305 1442.531, 1926.622 1391.191 L 1927.308 1376 1930.154 1376 L 1933 1376 1933 1303 L 1933 1230 1930.106 1230 L 1927.212 1230 1926.577 1220.750 C 1922.810 1165.901, 1911.105 1124.328, 1883.432 1067.500 C 1842.999 984.470, 1769.546 907.611, 1670.500 844.695 C 1620.669 813.042, 1563.469 784.145, 1504.500 760.834 C 1493.500 756.486, 1483.478 752.500, 1482.228 751.976 C 1480.538 751.267, 1480.087 750.444, 1480.469 748.761 C 1481.837 742.729, 1560.985 302.507, 1561.871 296 C 1566.065 265.206, 1563.188 231.859, 1553.894 203.555 C 1531.455 135.212, 1473.512 86.699, 1403.338 77.500 C 1391.188 75.907, 1366.829 75.696, 1356 77.090 M 640.075 1042.022 C 601.947 1050.068, 571.298 1086.592, 557.971 1139.864 C 553.819 1156.462, 552 1172.444, 552 1192.327 C 552 1218.099, 554.891 1237.407, 561.983 1259 C 581.996 1319.936, 625.816 1353.251, 670.500 1341.501 C 711.496 1330.720, 744.242 1281.313, 752.023 1218.500 C 752.637 1213.550, 753.138 1201.850, 753.138 1192.500 C 753.138 1166.709, 750.190 1147.405, 742.910 1125.540 C 728.704 1082.870, 703.521 1053.709, 672.500 1044.008 C 664.580 1041.532, 647.388 1040.478, 640.075 1042.022 M 1339 1042.560 C 1328.642 1044.792, 1321.121 1048.012, 1311.964 1054.134 C 1280.504 1075.169, 1258.257 1119.097, 1252.938 1170.689 C 1251.449 1185.131, 1252.231 1213.716, 1254.478 1226.986 C 1266.621 1298.689, 1309.138 1347.058, 1357.034 1343.658 C 1407.564 1340.072, 1447.343 1283.880, 1453.185 1207.838 C 1456.567 1163.813, 1445.457 1117.443, 1423.693 1084.752 C 1401.971 1052.122, 1369.558 1035.974, 1339 1042.560" stroke="none" fill="#d89554" fill-rule="evenodd"/></svg>