<svg xmlns="http://www.w3.org/2000/svg" width="300" height="300" viewBox="0 0 300 300" version="1.1"><path d="M 241.533 84.253 C 239.989 89.889, 238.225 95.001, 237.613 95.614 C 237.001 96.227, 233.012 97.975, 228.750 99.498 C 224.488 101.021, 221 102.396, 221 102.552 C 221 102.708, 224.566 104.023, 228.925 105.475 C 233.284 106.927, 237.281 108.651, 237.809 109.307 C 238.336 109.963, 239.977 114.495, 241.455 119.379 C 242.937 124.273, 244.520 127.863, 244.984 127.379 C 245.446 126.895, 247.011 122.580, 248.461 117.788 L 251.098 109.077 259.545 105.868 C 264.191 104.103, 267.784 102.450, 267.529 102.195 C 267.274 101.940, 263.563 100.498, 259.283 98.990 L 251.500 96.248 248.327 85.534 C 246.581 79.641, 244.970 74.637, 244.747 74.413 C 244.523 74.190, 243.077 78.618, 241.533 84.253 M 90.384 95.442 C 88.999 99.050, 90.416 100.488, 96.010 101.151 C 103.445 102.033, 116.058 102.122, 124.228 101.350 C 131.210 100.691, 132.853 99.386, 131.416 95.641 C 130.861 94.196, 128.410 94, 110.862 94 C 94.432 94, 90.840 94.253, 90.384 95.442 M 168.085 95.841 C 167.360 97.196, 167.464 98.253, 168.457 99.612 C 169.703 101.318, 171.561 101.532, 187.711 101.828 C 204.420 102.135, 205.746 102.024, 208.043 100.141 C 210.051 98.494, 210.297 97.794, 209.392 96.313 C 208.393 94.678, 206.364 94.473, 188.688 94.229 C 170.369 93.976, 169.027 94.081, 168.085 95.841 M 102.636 115.636 L 100 118.273 100 138 L 100 157.727 102.636 160.364 C 105.467 163.194, 108.451 163.663, 112.343 161.890 C 116.427 160.029, 117 157.089, 117 138 C 117 118.911, 116.427 115.971, 112.343 114.110 C 108.451 112.337, 105.467 112.806, 102.636 115.636 M 185.306 117.413 L 182.500 119.827 182.500 140 L 182.500 160.173 185.306 162.587 C 188.892 165.672, 193.108 165.671, 196.694 162.586 L 199.500 160.171 199.500 139.998 L 199.500 119.826 196.694 117.413 C 193.108 114.329, 188.892 114.329, 185.306 117.413 M 60.500 136.817 C 45.577 143.893, 43.556 163.092, 56.756 172.390 C 70.973 182.404, 91.134 169.719, 88.536 152.394 C 86.655 139.845, 71.671 131.520, 60.500 136.817 M 222.314 137.434 C 214.996 140.842, 211.653 146.108, 211.235 154.889 C 210.976 160.338, 211.325 162.196, 213.219 165.458 C 220.368 177.773, 237.296 179.482, 246.430 168.810 C 255.970 157.665, 251.168 140.848, 237.101 136.138 C 231.976 134.422, 228.043 134.767, 222.314 137.434 M 106.997 192.503 C 105.396 194.433, 105.395 198.566, 106.996 200.496 C 109.315 203.290, 123.881 209.837, 131.596 211.553 C 141.786 213.821, 160.265 213.103, 171 210.022 C 179.529 207.575, 189.659 203.353, 192.250 201.167 C 195.808 198.164, 193.262 191, 188.638 191 C 187.701 191, 184.724 192.119, 182.024 193.488 C 172.125 198.504, 160.450 201.228, 148.500 201.308 C 135.872 201.393, 129.071 199.794, 119.216 194.424 C 112.390 190.705, 108.940 190.162, 106.997 192.503" stroke="none" fill="#fc5595" fill-rule="evenodd"/><path d="M 130 0.626 C 117.519 2.938, 110.481 4.579, 104.053 6.677 C 52.171 23.612, 13.911 66.604, 2.312 121 C -0.273 133.125, -0.273 166.875, 2.312 179 C 8.355 207.338, 21.789 233.160, 40.991 253.343 C 58.971 272.242, 80.007 285.474, 104.500 293.293 C 120.251 298.321, 131.641 300, 150 300 C 168.756 300, 179.893 298.295, 196.383 292.900 C 219.976 285.181, 238.069 273.999, 256.034 256.034 C 273.437 238.632, 285.071 220.001, 292.495 197.644 C 295.931 187.297, 299 174.068, 299 169.601 C 299 168.235, 299.450 166.840, 300 166.500 C 300.603 166.127, 301 159.137, 301 148.882 C 301 137.803, 300.652 132.097, 300 132.500 C 299.431 132.852, 299 131.996, 299 130.517 C 299 125.942, 295.967 112.809, 292.495 102.356 C 277.678 57.739, 241.957 22.065, 197 6.987 C 181.850 1.906, 174.470 0.815, 153 0.481 C 141.725 0.306, 131.375 0.371, 130 0.626 M 241.533 84.253 C 239.989 89.889, 238.225 95.001, 237.613 95.614 C 237.001 96.227, 233.012 97.975, 228.750 99.498 C 224.488 101.021, 221 102.396, 221 102.552 C 221 102.708, 224.566 104.023, 228.925 105.475 C 233.284 106.927, 237.281 108.651, 237.809 109.307 C 238.336 109.963, 239.977 114.495, 241.455 119.379 C 242.937 124.273, 244.520 127.863, 244.984 127.379 C 245.446 126.895, 247.011 122.580, 248.461 117.788 L 251.098 109.077 259.545 105.868 C 264.191 104.103, 267.784 102.450, 267.529 102.195 C 267.274 101.940, 263.563 100.498, 259.283 98.990 L 251.500 96.248 248.327 85.534 C 246.581 79.641, 244.970 74.637, 244.747 74.413 C 244.523 74.190, 243.077 78.618, 241.533 84.253 M 90.384 95.442 C 88.999 99.050, 90.416 100.488, 96.010 101.151 C 103.445 102.033, 116.058 102.122, 124.228 101.350 C 131.210 100.691, 132.853 99.386, 131.416 95.641 C 130.861 94.196, 128.410 94, 110.862 94 C 94.432 94, 90.840 94.253, 90.384 95.442 M 168.085 95.841 C 167.360 97.196, 167.464 98.253, 168.457 99.612 C 169.703 101.318, 171.561 101.532, 187.711 101.828 C 204.420 102.135, 205.746 102.024, 208.043 100.141 C 210.051 98.494, 210.297 97.794, 209.392 96.313 C 208.393 94.678, 206.364 94.473, 188.688 94.229 C 170.369 93.976, 169.027 94.081, 168.085 95.841 M 102.636 115.636 L 100 118.273 100 138 L 100 157.727 102.636 160.364 C 105.467 163.194, 108.451 163.663, 112.343 161.890 C 116.427 160.029, 117 157.089, 117 138 C 117 118.911, 116.427 115.971, 112.343 114.110 C 108.451 112.337, 105.467 112.806, 102.636 115.636 M 185.306 117.413 L 182.500 119.827 182.500 140 L 182.500 160.173 185.306 162.587 C 188.892 165.672, 193.108 165.671, 196.694 162.586 L 199.500 160.171 199.500 139.998 L 199.500 119.826 196.694 117.413 C 193.108 114.329, 188.892 114.329, 185.306 117.413 M 0.411 150 C 0.411 159.625, 0.561 163.563, 0.745 158.750 C 0.928 153.937, 0.928 146.062, 0.745 141.250 C 0.561 136.438, 0.411 140.375, 0.411 150 M 60.500 136.817 C 45.577 143.893, 43.556 163.092, 56.756 172.390 C 70.973 182.404, 91.134 169.719, 88.536 152.394 C 86.655 139.845, 71.671 131.520, 60.500 136.817 M 222.314 137.434 C 214.996 140.842, 211.653 146.108, 211.235 154.889 C 210.976 160.338, 211.325 162.196, 213.219 165.458 C 220.368 177.773, 237.296 179.482, 246.430 168.810 C 255.970 157.665, 251.168 140.848, 237.101 136.138 C 231.976 134.422, 228.043 134.767, 222.314 137.434 M 106.997 192.503 C 105.396 194.433, 105.395 198.566, 106.996 200.496 C 109.315 203.290, 123.881 209.837, 131.596 211.553 C 141.786 213.821, 160.265 213.103, 171 210.022 C 179.529 207.575, 189.659 203.353, 192.250 201.167 C 195.808 198.164, 193.262 191, 188.638 191 C 187.701 191, 184.724 192.119, 182.024 193.488 C 172.125 198.504, 160.450 201.228, 148.500 201.308 C 135.872 201.393, 129.071 199.794, 119.216 194.424 C 112.390 190.705, 108.940 190.162, 106.997 192.503" stroke="none" fill="#fcebf3" fill-rule="evenodd"/></svg>